<?xml version="1.0" encoding="iso-8859-1"?>
<!-- Generator: Adobe Illustrator 25.4.1, SVG Export Plug-In . SVG Version: 6.00 Build 0)  -->
<svg version="1.1" xmlns="http://www.w3.org/2000/svg" xmlns:xlink="http://www.w3.org/1999/xlink" x="0px" y="0px"
	 viewBox="0 0 1920 1080" style="enable-background:new 0 0 1920 1080;" xml:space="preserve">
<g id="Draft2_x5F_sky.png_xA0_Image_00000047781907524637582950000000035706293918053261_">
	<image style="overflow:visible;" width="1920" height="672" id="Draft2_x5F_sky.png_xA0_Image" xlink:href="E2B66BA.png" >
	</image>
</g>
<g id="Draft2_x5F_trees.png_xA0_Image_00000008147527020053193180000003043319387848143783_">
	<image style="overflow:visible;" width="1920" height="744" id="Draft2_x5F_trees.png_xA0_Image" xlink:href="E2B66BE.png" >
	</image>
</g>
<g id="Draft2_x5F_ground.png_xA0_Image_00000007399761869111881640000017521281923126401166_">
	
		<image style="overflow:visible;" width="1920" height="120" id="Draft2_x5F_ground.png_xA0_Image" xlink:href="E2B66B9.png"  transform="matrix(1 0 0 1 0 960)">
	</image>
</g>
<g id="Draft2_x5F_brick.png_xA0_Image_00000021100302475441915280000001297208128425606822_">
	
		<image style="overflow:visible;" width="1920" height="192" id="Draft2_x5F_brick.png_xA0_Image" xlink:href="E2B66BB.png"  transform="matrix(1 0 0 1 0 768)">
	</image>
</g>
<g id="Draft2_x5F_building.png_xA0_Image_00000061435216605786187980000017178408296507918730_">
	
		<image style="overflow:visible;" width="1920" height="608" id="Draft2_x5F_building.png_xA0_Image" xlink:href="E2B66B8.png"  transform="matrix(1 0 0 1 0 352)">
	</image>
</g>
<g id="Draft2_x5F_window6.png_xA0_Image_00000015327869309706201880000013366144681016776594_">
	
		<image style="overflow:visible;" width="120" height="232" id="Draft2_x5F_window6.png_xA0_Image" xlink:href="E2B66C6.png"  transform="matrix(1 0 0 1 1384 536)">
	</image>
</g>
<g id="Draft2_x5F_window5.png_xA0_Image_00000013152553838914305780000003411496449720751796_">
	
		<image style="overflow:visible;" width="120" height="232" id="Draft2_x5F_window5.png_xA0_Image" xlink:href="E2B66C9.png"  transform="matrix(1 0 0 1 1184 536)">
	</image>
</g>
<g id="Draft2_x5F_window4.png_xA0_Image_00000001624563084300649380000015460126643820724105_">
	
		<image style="overflow:visible;" width="120" height="232" id="Draft2_x5F_window4.png_xA0_Image" xlink:href="E2B66CA.png"  transform="matrix(1 0 0 1 992 536)">
	</image>
</g>
<g id="Draft2_x5F_window3.png_xA0_Image_00000119834889269504511910000003699039918716190093_">
	
		<image style="overflow:visible;" width="120" height="232" id="Draft2_x5F_window3.png_xA0_Image" xlink:href="E2B66C8.png"  transform="matrix(1 0 0 1 800 536)">
	</image>
</g>
<g id="Draft2_x5F_window2.png_xA0_Image_00000044886603974289162900000002919998230460486057_">
	
		<image style="overflow:visible;" width="120" height="232" id="Draft2_x5F_window2.png_xA0_Image" xlink:href="C45D93D.png"  transform="matrix(1 0 0 1 608 536)">
	</image>
</g>
<g id="Draft2_x5F_window1.png_xA0_Image_00000159453739057340731380000013087975331940927127_">
	
		<image style="overflow:visible;" width="120" height="232" id="Draft2_x5F_window1.png_xA0_Image" xlink:href="C45D933.png"  transform="matrix(1 0 0 1 416 536)">
	</image>
</g>
<g id="Draft2_x5F_yellowwindow6.png_xA0_Image_00000155142385093923051990000007943196462244808576_">
	
		<image style="overflow:visible;" width="120" height="232" id="Draft2_x5F_yellowwindow6.png_xA0_Image" xlink:href="C45D935.png"  transform="matrix(1 0 0 1 1384 536)">
	</image>
</g>
<g id="Draft2_x5F_yellowwindow5.png_xA0_Image_00000122692833601852813640000011849413262792939197_">
	
		<image style="overflow:visible;" width="120" height="232" id="Draft2_x5F_yellowwindow5.png_xA0_Image" xlink:href="C45D937.png"  transform="matrix(1 0 0 1 1184 536)">
	</image>
</g>
<g id="Draft2_x5F_yellowwindow4.png_xA0_Image_00000008125207099816774980000017315222247629360788_">
	
		<image style="overflow:visible;" width="120" height="232" id="Draft2_x5F_yellowwindow4.png_xA0_Image" xlink:href="C45D934.png"  transform="matrix(1 0 0 1 992 536)">
	</image>
</g>
<g id="Draft2_x5F_yellowwindow3.png_xA0_Image_00000143584449264724090460000009149725187948803725_">
	
		<image style="overflow:visible;" width="120" height="232" id="Draft2_x5F_yellowwindow3.png_xA0_Image" xlink:href="C45D92C.png"  transform="matrix(1 0 0 1 800 536)">
	</image>
</g>
<g id="Draft2_x5F_yellowwindow2.png_xA0_Image_00000056418404543614282590000000881600851403423403_">
	
		<image style="overflow:visible;" width="120" height="232" id="Draft2_x5F_yellowwindow2.png_xA0_Image" xlink:href="C45D92D.png"  transform="matrix(1 0 0 1 608 536)">
	</image>
</g>
<g id="Draft2_x5F_yellowwindow1.png_xA0_Image_00000094604145685573851090000011679429785120806586_">
	
		<image style="overflow:visible;" width="120" height="232" id="Draft2_x5F_yellowwindow1.png_xA0_Image" xlink:href="C45D92F.png"  transform="matrix(1 0 0 1 416 536)">
	</image>
</g>
<g id="Draft2_x5F_atmmachine.png_xA0_Image_00000083058706309992854770000013995841029233073567_">
	
		<image style="overflow:visible;" width="72" height="280" id="Draft2_x5F_atmmachine.png_xA0_Image" xlink:href="C45D92B.png"  transform="matrix(1 0 0 1 1672 648)">
	</image>
</g>
<g id="Draft2_x5F_tokensalessign.png_xA0_Image_00000000909555242996969970000014993327606780953524_">
	
		<image style="overflow:visible;" width="736" height="128" id="Draft2_x5F_tokensalessign.png_xA0_Image" xlink:href="C45D953.png"  transform="matrix(1 0 0 1 592 336)">
	</image>
</g>
<g id="Draft2_x5F_tokensales.png_xA0_Image_00000097462518836933471290000001261997251181196706_">
	
		<image style="overflow:visible;" width="672" height="48" id="Draft2_x5F_tokensales.png_xA0_Image" xlink:href="C45D948.png"  transform="matrix(1 0 0 1 624 376)">
	</image>
</g>
<g id="Draft2_x5F_atmsign.png_xA0_Image_00000005988890662622737040000006386108713433949597_">
	
		<image style="overflow:visible;" width="168" height="80" id="Draft2_x5F_atmsign.png_xA0_Image" xlink:href="C45D94B.png"  transform="matrix(1 0 0 1 1648 464)">
	</image>
</g>
<g id="Draft2_x5F_atm.png_xA0_Image_00000033362405610339394380000016710768653558342575_">
	
		<image style="overflow:visible;" width="128" height="32" id="Draft2_x5F_atm.png_xA0_Image" xlink:href="C45D949.png"  transform="matrix(1 0 0 1 1672 488)">
	</image>
</g>
</svg>
