<?xml version="1.0" encoding="iso-8859-1"?>
<!-- Generator: Adobe Illustrator 25.4.1, SVG Export Plug-In . SVG Version: 6.00 Build 0)  -->
<svg version="1.1" xmlns="http://www.w3.org/2000/svg" xmlns:xlink="http://www.w3.org/1999/xlink" x="0px" y="0px"
	 viewBox="0 0 1920 1080" style="enable-background:new 0 0 1920 1080;" xml:space="preserve">
<g id="BG_xA0_Image_00000065795892757507971490000016460959747045952952_">
	<image style="overflow:visible;" width="1920" height="1080" id="BG_xA0_Image" xlink:href="19492080.png" >
	</image>
</g>
<g id="Counter_xA0_Image_00000008869749503641724480000011926830534322496918_">
	
		<image style="overflow:visible;" width="1920" height="400" id="Counter_xA0_Image" xlink:href="19492081.png"  transform="matrix(1 0 0 1 0 680)">
	</image>
</g>
<g id="PCs_xA0_Image_00000108288815002719442220000007954542116441596578_">
	
		<image style="overflow:visible;" width="1822" height="392" id="PCs_xA0_Image" xlink:href="19492087.png"  transform="matrix(1 0 0 1 58 352)">
	</image>
</g>
<g id="Image_xA0_3_xA0_Image_00000049924166408773239460000009340826386905084315_" style="display:none;">
	
		<image style="display:inline;overflow:visible;" width="273" height="130" id="Image_xA0_3_xA0_Image" xlink:href="19492082.png"  transform="matrix(1 0 0 1 1607 32)">
	</image>
</g>
<g id="CoasterView_xA0_Image_00000097481420372280526230000009975085384852305800_">
	
		<image style="overflow:visible;" width="320" height="184" id="CoasterView_xA0_Image" xlink:href="19492083.png"  transform="matrix(1 0 0 1 160 32)">
	</image>
</g>
<g id="LifetimePassSign_xA0_Image_00000024711549904647158840000003878788814558963888_">
	
		<image style="overflow:visible;" width="632" height="211" id="LifetimePassSign_xA0_Image" xlink:href="1949208E.png"  transform="matrix(1 0 0 1 632 437)">
	</image>
</g>
<g id="LifetimePassSign_copy_xA0_Image_00000182505723090910118320000007302215513942193848_" style="opacity:0.6392;">
	
		<image style="overflow:visible;" width="632" height="219" id="LifetimePassSign_copy_xA0_Image" xlink:href="1949208F.png"  transform="matrix(1 0 0 1 631 437)">
	</image>
</g>
<g id="SeasonPass_xA0_Image_00000026861792265298744600000011033064106938517131_">
	
		<image style="overflow:visible;" width="632" height="214" id="SeasonPass_xA0_Image" xlink:href="19492084.png"  transform="matrix(1 0 0 1 632 223)">
	</image>
</g>
<g id="FastPass_xA0_Image_00000154397451190263219900000016271648331941861542_">
	
		<image style="overflow:visible;" width="632" height="215" id="FastPass_xA0_Image" xlink:href="19492085.png"  transform="matrix(1 0 0 1 631 10)">
	</image>
</g>
</svg>
