<?xml version="1.0" encoding="iso-8859-1"?>
<!-- Generator: Adobe Illustrator 25.4.1, SVG Export Plug-In . SVG Version: 6.00 Build 0)  -->
<svg version="1.1" xmlns="http://www.w3.org/2000/svg" xmlns:xlink="http://www.w3.org/1999/xlink" x="0px" y="0px"
	 viewBox="0 0 1920 1080" style="enable-background:new 0 0 1920 1080;" xml:space="preserve">
<g id="BG_xA0_Image_00000074431399855234875200000002046267792522797489_">
	<image style="overflow:visible;" width="1920" height="1080" id="BG_xA0_Image" xlink:href="3457F6BC.png" >
	</image>
</g>
<g id="Counter_xA0_Image_00000009577811358668988380000017025387817280309919_">
	
		<image style="overflow:visible;" width="1920" height="400" id="Counter_xA0_Image" xlink:href="3457F6BD.png"  transform="matrix(1 0 0 1 0 680)">
	</image>
</g>
<g id="PCs_xA0_Image_00000116215945643971304530000009449611806187816097_">
	
		<image style="overflow:visible;" width="1822" height="736" id="PCs_xA0_Image" xlink:href="3457F6BB.png"  transform="matrix(1 0 0 1 58 8)">
	</image>
</g>
<g id="Image_xA0_3_xA0_Image_00000010995068685421068300000017163765161567990716_" style="display:none;">
	
		<image style="display:inline;overflow:visible;" width="273" height="130" id="Image_xA0_3_xA0_Image" xlink:href="3457F6C4.png"  transform="matrix(1 0 0 1 1607 32)">
	</image>
</g>
<g id="CoasterView_xA0_Image_00000174581678145025938800000014237056635623395486_">
	
		<image style="overflow:visible;" width="320" height="184" id="CoasterView_xA0_Image" xlink:href="3457F6C7.png"  transform="matrix(1 0 0 1 160 32)">
	</image>
</g>
<g id="LifetimePassSign_copy_xA0_Image_00000017494838389315988780000011108312082959994496_" style="opacity:0.6392;">
	
		<image style="overflow:visible;" width="619" height="644" id="LifetimePassSign_copy_xA0_Image" xlink:href="3457F6C5.png"  transform="matrix(1 0 0 1 653 12)">
	</image>
</g>
<g id="LifetimePassSign_copy_2_xA0_Image_00000082337071627108182870000000262202197781799053_">
	
		<image style="overflow:visible;" width="619" height="203" id="LifetimePassSign_copy_2_xA0_Image" xlink:href="3457F6CB.png"  transform="matrix(1 0 0 1 653 437)">
	</image>
</g>
<g id="SeasonPass_xA0_Image_00000079459919767963307490000012631059419548435607_">
	
		<image style="overflow:visible;" width="619" height="632" id="SeasonPass_xA0_Image" xlink:href="3457F6CC.png"  transform="matrix(1 0 0 1 653 8)">
	</image>
</g>
<g id="FastPass_xA0_Image_00000080190399911373018040000005738309152889907607_">
	
		<image style="overflow:visible;" width="619" height="217" id="FastPass_xA0_Image" xlink:href="3457F6CF.png"  transform="matrix(1 0 0 1 653 8)">
	</image>
</g>
</svg>
